<?xml version="1.0" encoding="UTF-8"?>
<svg version="1.1" viewBox="0 0 413.06 282.21" xmlns="http://www.w3.org/2000/svg">
 <g transform="translate(-4.164 -8.1632)" fill-opacity="0" stroke="#000" stroke-width=".5" label="Layer 1">
  <rect transform="matrix(9.1054 0 0 6.1272 -4801.5 -1946)" x="543.18" y="341.06" width="4.1524" height="4.0226" rx=".13763" ry=".20644" label="Layer 1"/>
  <rect transform="matrix(9.1054 0 0 6.1272 -4801.5 -1946)" x="543.23" y="345.15" width="4.0993" height=".25952" rx=".03441" ry=".06882" label="Layer 1"/>
  <rect transform="matrix(9.1054 0 0 6.1272 -4755.4 -1946)" x="543.18" y="341.06" width="4.1524" height="4.0226" rx=".13763" ry=".20644" label="Layer 1"/>
  <rect transform="matrix(9.1054 0 0 6.1272 -4755.4 -1946)" x="543.23" y="345.15" width="4.0993" height=".25952" rx=".03441" ry=".06882" label="Layer 1"/>
  <rect transform="matrix(9.1054 0 0 6.1272 -4710.4 -1946)" x="543.18" y="341.06" width="4.1524" height="4.0226" rx=".13763" ry=".20644" label="Layer 1"/>
  <rect transform="matrix(9.1054 0 0 6.1272 -4710.4 -1946)" x="543.23" y="345.15" width="4.0993" height=".25952" rx=".03441" ry=".06882" label="Layer 1"/>
  <rect transform="matrix(9.1054 0 0 6.1272 -4801.5 -1915)" x="543.18" y="341.06" width="4.1524" height="4.0226" rx=".13763" ry=".20644" label="Layer 1"/>
  <rect transform="matrix(9.1054 0 0 6.1272 -4801.5 -1915)" x="543.23" y="345.15" width="4.0993" height=".25952" rx=".03441" ry=".06882" label="Layer 1"/>
  <rect transform="matrix(9.1054 0 0 6.1272 -4755.4 -1915)" x="543.18" y="341.06" width="4.1524" height="4.0226" rx=".13763" ry=".20644" label="Layer 1"/>
  <rect transform="matrix(9.1054 0 0 6.1272 -4755.4 -1915)" x="543.23" y="345.15" width="4.0993" height=".25952" rx=".03441" ry=".06882" label="Layer 1"/>
  <rect transform="matrix(9.1054 0 0 6.1272 -4710.4 -1915)" x="543.18" y="341.06" width="4.1524" height="4.0226" rx=".13763" ry=".20644" label="Layer 1"/>
  <rect transform="matrix(9.1054 0 0 6.1272 -4710.4 -1915)" x="543.23" y="345.15" width="4.0993" height=".25952" rx=".03441" ry=".06882" label="Layer 1"/>
  <rect transform="matrix(9.1054 0 0 6.1272 -4801.5 -1884.3)" x="543.18" y="341.06" width="4.1524" height="4.0226" rx=".13763" ry=".20644" label="Layer 1"/>
  <rect transform="matrix(9.1054 0 0 6.1272 -4801.5 -1884.3)" x="543.23" y="345.15" width="4.0993" height=".25952" rx=".03441" ry=".06882" label="Layer 1"/>
  <rect transform="matrix(9.1054 0 0 6.1272 -4755.4 -1884.3)" x="543.18" y="341.06" width="4.1524" height="4.0226" rx=".13763" ry=".20644" label="Layer 1"/>
  <rect transform="matrix(9.1054 0 0 6.1272 -4755.4 -1884.3)" x="543.23" y="345.15" width="4.0993" height=".25952" rx=".03441" ry=".06882" label="Layer 1"/>
  <rect transform="matrix(9.1054 0 0 6.1272 -4710.4 -1884.3)" x="543.18" y="341.06" width="4.1524" height="4.0226" rx=".13763" ry=".20644" label="Layer 1"/>
  <rect transform="matrix(9.1054 0 0 6.1272 -4710.4 -1884.3)" x="543.23" y="345.15" width="4.0993" height=".25952" rx=".03441" ry=".06882" label="Layer 1"/>
  <rect transform="matrix(9.1054 0 0 6.1272 -4801.5 -1852.8)" x="543.18" y="341.06" width="4.1524" height="4.0226" rx=".13763" ry=".20644" label="Layer 1"/>
  <rect transform="matrix(9.1054 0 0 6.1272 -4801.5 -1852.8)" x="543.23" y="345.15" width="4.0993" height=".25952" rx=".03441" ry=".06882" label="Layer 1"/>
  <rect transform="matrix(9.1054 0 0 6.1272 -4755.4 -1852.8)" x="543.18" y="341.06" width="4.1524" height="4.0226" rx=".13763" ry=".20644" label="Layer 1"/>
  <rect transform="matrix(9.1054 0 0 6.1272 -4755.4 -1852.8)" x="543.23" y="345.15" width="4.0993" height=".25952" rx=".03441" ry=".06882" label="Layer 1"/>
  <rect transform="matrix(9.1054 0 0 6.1272 -4710.4 -1852.8)" x="543.18" y="341.06" width="4.1524" height="4.0226" rx=".13763" ry=".20644" label="Layer 1"/>
  <rect transform="matrix(9.1054 0 0 6.1272 -4710.4 -1852.8)" x="543.23" y="345.15" width="4.0993" height=".25952" rx=".03441" ry=".06882" label="Layer 1"/>
 </g>
 <g transform="translate(-4.164 -8.1632)">
  <path transform="matrix(.94476 -.015584 .015584 .94476 -163.58 -156)" d="m190.51 326.44c-12.33-8.502-11.107-20.391-15.446-30.891 1.328-17.251-5.353-17.755 19.01-83.168 144.2-44.689 272.37-36.655 389.7 5.941 11.466 24.567 25.163 47.647 23.762 80.792-3.388 9.989-5.471 20.631-13.069 28.515-16.722 4-48.397 0.199-116.44-22.574l10.693-43.96c2.008-6.988 1.788-14.718-9.505-26.139-59.71-2.009-119.5-4.33-177.03 2.376-9.002 2.879-11.809 11.953-11.881 23.762l11.881 33.267c-40.712 14.613-87.66 36.241-111.68 32.079h5e-3z" fill-opacity="0" stroke="#000" stroke-linecap="round" stroke-linejoin="bevel" stroke-width="4.5" label="Layer 1"/>
 </g>
 <g transform="translate(-4.164 -8.1632)">
  <path transform="matrix(.94489 0 0 .94489 -160.21 -114.51)" d="m304.16 250.97c-12.609 3.029-30.587 9.136-46.337 19.022-10.387 44.007-12.012 96.516-13.069 149.57 108.68 8.702 183.07 7.222 289.9 3.458 0.252-50.074-2.383-100.98-17.822-155.63-13.069-6.247-26.139-12.436-39.208-16.427 0.957-11.348 0.577-24.155-4.753-42.366-5.509-1.309-15.506-0.986-27.327 0-1.188 7.723-2.376 13.442-3.564 27.667-40.975 0.91-76.645 0.532-108.12-0.864-0.396-7.658-0.792-16.844-1.188-26.803-9.505-1.425-14.257-2.578-23.762-1.729-1.916 13.249-5.676 18.447-4.752 44.095l2e-3 2e-3z" fill-opacity="0" stroke="#000" stroke-linecap="round" stroke-linejoin="bevel" stroke-width="5" label="Layer 1"/>
 </g>
</svg>
